<svg width="34" height="35" viewBox="0 0 34 35" fill="none" xmlns="http://www.w3.org/2000/svg">
<path d="M12.8562 4.82789C12.8562 4.82789 8.52656 5.12963 5.695 7.4358C5.68172 7.44119 5.66578 7.44927 5.6525 7.45735C5.16109 7.91805 4.79187 8.63199 4.335 9.65576C3.87812 10.6795 3.39469 11.9969 2.95375 13.4706C2.07453 16.4207 1.36 20.0416 1.36 23.4496C1.35734 23.5709 1.38656 23.6894 1.445 23.7945C2.43844 25.5645 4.26594 26.6341 5.97125 27.3076C7.67656 27.9812 9.25172 28.2506 10.0512 28.2775C10.277 28.2856 10.4922 28.1805 10.625 27.9973L12.2825 25.6696C13.6186 25.9902 15.1858 26.2084 17 26.2084C18.8142 26.2084 20.3814 25.9902 21.7175 25.6696L23.375 27.9973C23.5078 28.1805 23.723 28.2856 23.9488 28.2775C24.7483 28.2506 26.3234 27.9812 28.0288 27.3076C29.7341 26.6341 31.5616 25.5645 32.555 23.7945C32.6134 23.6894 32.6427 23.5709 32.64 23.4496C32.64 20.0416 31.9255 16.4207 31.0463 13.4706C30.6053 11.9969 30.1219 10.6795 29.665 9.65576C29.2081 8.63199 28.8389 7.91805 28.3475 7.45735C28.3342 7.44927 28.3183 7.44119 28.305 7.4358C25.4734 5.12963 21.1438 4.82789 21.1438 4.82789C21.0933 4.82251 21.0455 4.82251 20.995 4.82789C20.7586 4.86022 20.5594 5.01648 20.4638 5.2374C20.4638 5.2374 20.2327 5.75198 20.0813 6.48747C18.7558 6.27194 17.6402 6.20728 17 6.20728C16.3598 6.20728 15.2442 6.27194 13.9187 6.48747C13.7673 5.75198 13.5363 5.2374 13.5363 5.2374C13.4194 4.96799 13.1458 4.80365 12.8562 4.82789ZM12.4312 6.31505C12.4817 6.45514 12.5162 6.58715 12.5588 6.74611C11.0261 7.10712 9.34734 7.69713 7.7775 8.68587C7.53047 8.79094 7.36844 9.03341 7.36047 9.30552C7.35516 9.57493 7.50656 9.82549 7.74562 9.94403C7.98734 10.0599 8.27422 10.0248 8.47875 9.84973C11.6291 7.86955 15.6373 7.58667 17 7.58667C18.3627 7.58667 22.3709 7.86955 25.5213 9.84973C25.7258 10.0248 26.0127 10.0599 26.2544 9.94403C26.4934 9.82549 26.6448 9.57493 26.6395 9.30552C26.6316 9.03341 26.4695 8.79094 26.2225 8.68587C24.6527 7.69713 22.9739 7.10712 21.4412 6.74611C21.4838 6.58715 21.5183 6.45514 21.5688 6.31505C22.3444 6.41204 25.3592 6.82424 27.4125 8.47034C27.5453 8.59427 28.0075 9.28397 28.4325 10.2377C28.8575 11.1914 29.3038 12.4334 29.7288 13.8586C30.5575 16.6389 31.2269 20.0685 31.2588 23.2126C30.4858 24.4815 29.0355 25.4244 27.54 26.0145C26.18 26.5506 24.9103 26.7904 24.2463 26.855L23.0988 25.2816C23.6831 25.0904 24.2091 24.8829 24.6713 24.6782C26.3872 23.913 27.3063 23.1048 27.3063 23.1048C27.5878 22.8489 27.6117 22.4097 27.3594 22.1241C27.107 21.8386 26.6741 21.8143 26.3925 22.0703C26.3925 22.0703 25.6806 22.7303 24.1188 23.4281C23.545 23.684 22.8491 23.9373 22.0575 24.1609C21.8742 24.1393 21.6909 24.1932 21.5475 24.3118C20.2805 24.6243 18.7744 24.829 17 24.829C15.2123 24.829 13.7036 24.6054 12.4312 24.2902C12.2878 24.1932 12.1125 24.1528 11.9425 24.1824C11.1483 23.9588 10.4577 23.684 9.88125 23.4281C8.31937 22.7303 7.6075 22.0703 7.6075 22.0703C7.45344 21.9248 7.24094 21.8628 7.03375 21.8978C6.77078 21.9382 6.55297 22.1295 6.48125 22.3909C6.40687 22.6495 6.49187 22.9297 6.69375 23.1048C6.69375 23.1048 7.61281 23.913 9.32875 24.6782C9.79094 24.8829 10.3169 25.0904 10.9012 25.2816L9.75375 26.855C9.08969 26.7904 7.82 26.5506 6.46 26.0145C4.96453 25.4244 3.51422 24.4815 2.74125 23.2126C2.77312 20.0685 3.4425 16.6389 4.27125 13.8586C4.69625 12.4334 5.1425 11.1914 5.5675 10.2377C5.9925 9.28397 6.45469 8.59427 6.5875 8.47034C8.64078 6.82424 11.6556 6.41204 12.4312 6.31505ZM12.58 14.4836C10.8455 14.4836 9.52 16.0812 9.52 17.9321C9.52 19.783 10.8455 21.3806 12.58 21.3806C14.3145 21.3806 15.64 19.783 15.64 17.9321C15.64 16.0812 14.3145 14.4836 12.58 14.4836ZM21.42 14.4836C19.6855 14.4836 18.36 16.0812 18.36 17.9321C18.36 19.783 19.6855 21.3806 21.42 21.3806C23.1545 21.3806 24.48 19.783 24.48 17.9321C24.48 16.0812 23.1545 14.4836 21.42 14.4836ZM12.58 15.863C13.4752 15.863 14.28 16.7359 14.28 17.9321C14.28 19.1283 13.4752 20.0012 12.58 20.0012C11.6848 20.0012 10.88 19.1283 10.88 17.9321C10.88 16.7359 11.6848 15.863 12.58 15.863ZM21.42 15.863C22.3152 15.863 23.12 16.7359 23.12 17.9321C23.12 19.1283 22.3152 20.0012 21.42 20.0012C20.5248 20.0012 19.72 19.1283 19.72 17.9321C19.72 16.7359 20.5248 15.863 21.42 15.863Z" fill="black"/>
</svg>
