<svg width="34" height="35" viewBox="0 0 34 35" fill="none" xmlns="http://www.w3.org/2000/svg">
<path d="M12.8563 4.82786C12.8563 4.82786 8.52659 5.1296 5.69503 7.43577C5.68175 7.44116 5.66581 7.44924 5.65253 7.45732C5.16112 7.91802 4.7919 8.63196 4.33503 9.65573C3.87815 10.6795 3.39472 11.9969 2.95378 13.4706C2.07456 16.4207 1.36003 20.0416 1.36003 23.4496C1.35737 23.5709 1.38659 23.6894 1.44503 23.7945C2.43847 25.5645 4.26597 26.6341 5.97128 27.3076C7.67659 27.9811 9.25175 28.2505 10.0513 28.2775C10.2771 28.2856 10.4922 28.1805 10.625 27.9973L12.2825 25.6696C13.6186 25.9902 15.1858 26.2084 17 26.2084C18.8142 26.2084 20.3814 25.9902 21.7175 25.6696L23.375 27.9973C23.5078 28.1805 23.723 28.2856 23.9488 28.2775C24.7483 28.2505 26.3235 27.9811 28.0288 27.3076C29.7341 26.6341 31.5616 25.5645 32.555 23.7945C32.6135 23.6894 32.6427 23.5709 32.64 23.4496C32.64 20.0416 31.9255 16.4207 31.0463 13.4706C30.6053 11.9969 30.1219 10.6795 29.665 9.65573C29.2082 8.63196 28.8389 7.91802 28.3475 7.45732C28.3343 7.44924 28.3183 7.44116 28.305 7.43577C25.4735 5.1296 21.1438 4.82786 21.1438 4.82786C21.0933 4.82248 21.0455 4.82248 20.995 4.82786C20.7586 4.86019 20.5594 5.01645 20.4638 5.23737C20.4638 5.23737 20.2327 5.75195 20.0813 6.48744C18.7558 6.27191 17.6402 6.20725 17 6.20725C16.3599 6.20725 15.2442 6.27191 13.9188 6.48744C13.7674 5.75195 13.5363 5.23737 13.5363 5.23737C13.4194 4.96796 13.1458 4.80362 12.8563 4.82786ZM12.4313 6.31502C12.4817 6.45511 12.5163 6.58712 12.5588 6.74608C11.0261 7.10709 9.34737 7.6971 7.77753 8.68584C7.5305 8.79091 7.36847 9.03338 7.3605 9.30549C7.35519 9.5749 7.50659 9.82545 7.74566 9.944C7.98737 10.0598 8.27425 10.0248 8.47878 9.8497C11.6291 7.86952 15.6374 7.58664 17 7.58664C18.3627 7.58664 22.371 7.86952 25.5213 9.8497C25.7258 10.0248 26.0127 10.0598 26.2544 9.944C26.4935 9.82545 26.6449 9.5749 26.6396 9.30549C26.6316 9.03338 26.4696 8.79091 26.2225 8.68584C24.6527 7.6971 22.9739 7.10709 21.4413 6.74608C21.4838 6.58712 21.5183 6.45511 21.5688 6.31502C22.3444 6.41201 25.3593 6.82421 27.4125 8.47031C27.5453 8.59424 28.0075 9.28394 28.4325 10.2377C28.8575 11.1914 29.3038 12.4334 29.7288 13.8586C30.5575 16.6389 31.2269 20.0685 31.2588 23.2125C30.4858 24.4815 29.0355 25.4244 27.54 26.0144C26.18 26.5505 24.9103 26.7903 24.2463 26.855L23.0988 25.2816C23.6832 25.0903 24.2091 24.8829 24.6713 24.6781C26.3872 23.913 27.3063 23.1048 27.3063 23.1048C27.5878 22.8488 27.6118 22.4097 27.3594 22.1241C27.1071 21.8385 26.6741 21.8143 26.3925 22.0702C26.3925 22.0702 25.6807 22.7303 24.1188 23.4281C23.545 23.684 22.8491 23.9373 22.0575 24.1609C21.8743 24.1393 21.691 24.1932 21.5475 24.3117C20.2805 24.6243 18.7744 24.829 17 24.829C15.2124 24.829 13.7036 24.6054 12.4313 24.2902C12.2878 24.1932 12.1125 24.1528 11.9425 24.1824C11.1483 23.9588 10.4577 23.684 9.88128 23.4281C8.31941 22.7303 7.60753 22.0702 7.60753 22.0702C7.45347 21.9247 7.24097 21.8628 7.03378 21.8978C6.77081 21.9382 6.553 22.1295 6.48128 22.3908C6.40691 22.6495 6.49191 22.9297 6.69378 23.1048C6.69378 23.1048 7.61284 23.913 9.32878 24.6781C9.79097 24.8829 10.3169 25.0903 10.9013 25.2816L9.75378 26.855C9.08972 26.7903 7.82003 26.5505 6.46003 26.0144C4.96456 25.4244 3.51425 24.4815 2.74128 23.2125C2.77315 20.0685 3.44253 16.6389 4.27128 13.8586C4.69628 12.4334 5.14253 11.1914 5.56753 10.2377C5.99253 9.28394 6.45472 8.59424 6.58753 8.47031C8.64081 6.82421 11.6557 6.41201 12.4313 6.31502ZM12.58 14.4836C10.8455 14.4836 9.52003 16.0812 9.52003 17.9321C9.52003 19.7829 10.8455 21.3805 12.58 21.3805C14.3146 21.3805 15.64 19.7829 15.64 17.9321C15.64 16.0812 14.3146 14.4836 12.58 14.4836ZM21.42 14.4836C19.6855 14.4836 18.36 16.0812 18.36 17.9321C18.36 19.7829 19.6855 21.3805 21.42 21.3805C23.1546 21.3805 24.48 19.7829 24.48 17.9321C24.48 16.0812 23.1546 14.4836 21.42 14.4836ZM12.58 15.863C13.4752 15.863 14.28 16.7359 14.28 17.9321C14.28 19.1282 13.4752 20.0011 12.58 20.0011C11.6849 20.0011 10.88 19.1282 10.88 17.9321C10.88 16.7359 11.6849 15.863 12.58 15.863ZM21.42 15.863C22.3152 15.863 23.12 16.7359 23.12 17.9321C23.12 19.1282 22.3152 20.0011 21.42 20.0011C20.5249 20.0011 19.72 19.1282 19.72 17.9321C19.72 16.7359 20.5249 15.863 21.42 15.863Z" fill="white"/>
</svg>
