<svg width="28" height="25" viewBox="0 0 28 25" fill="none" xmlns="http://www.w3.org/2000/svg">
<path d="M27 1.09808C25.8683 1.93806 24.6152 2.58051 23.2891 3.00069C22.5773 2.13955 21.6314 1.5292 20.5792 1.25218C19.527 0.975165 18.4194 1.04485 17.4061 1.4518C16.3928 1.85876 15.5227 2.58336 14.9135 3.5276C14.3043 4.47183 13.9855 5.59015 14 6.7313V7.97484C11.9231 8.03151 9.86514 7.54683 8.00937 6.56398C6.15361 5.58113 4.55765 4.13061 3.36364 2.34161C3.36364 2.34161 -1.36364 13.5335 9.27273 18.5076C6.83881 20.246 3.93937 21.1177 1 20.9947C11.6364 27.2124 24.6364 20.9947 24.6364 6.694C24.6353 6.34761 24.6036 6.00208 24.5418 5.66186C25.748 4.41023 26.5992 2.82997 27 1.09808Z" stroke="white" stroke-width="1.5" stroke-linecap="round" stroke-linejoin="round"/>
</svg>
