<svg width="25" height="24" viewBox="0 0 25 24" fill="none" xmlns="http://www.w3.org/2000/svg">
<path d="M24.34 0.522019C23.817 0.0768845 23.0981 -0.0376617 22.4682 0.223721L1.13837 9.06167C0.200094 9.45803 -0.247426 10.56 0.138768 11.5229C0.338514 12.0209 0.736117 12.4074 1.23138 12.5852L5.83287 14.227L8.3266 22.6891C8.33162 22.7063 8.34702 22.7168 8.35349 22.7334C8.37928 22.8009 8.41699 22.863 8.46459 22.9165C8.48232 22.9381 8.50164 22.9583 8.52228 22.9769C8.5844 23.0299 8.65656 23.069 8.73416 23.0919C8.746 23.0954 8.75392 23.1063 8.76598 23.1091L8.77296 23.1088L8.77645 23.1103C8.81619 23.1194 8.85674 23.1238 8.89736 23.1234C8.95047 23.1215 9.00315 23.1121 9.05372 23.0954C9.06353 23.0927 9.07341 23.0934 9.08301 23.0901C9.1694 23.0589 9.24744 23.0075 9.31102 22.94C9.31843 22.9323 9.32969 22.931 9.33681 22.923L12.9245 18.8601L18.1585 23.0196C18.4765 23.2748 18.8686 23.4134 19.2722 23.4134C20.1453 23.4132 20.899 22.7855 21.0789 21.9087L24.9631 2.33805C25.0977 1.66107 24.8581 0.963051 24.34 0.522019ZM9.62869 15.8318L8.78677 20.031L7.03098 14.0711L15.7392 9.41717L9.79029 15.5228C9.70804 15.6073 9.65187 15.7147 9.62869 15.8318ZM19.9129 21.6629C19.8672 21.8879 19.7109 22.0723 19.5002 22.1498C19.2942 22.2311 19.0617 22.1948 18.8886 22.0543L13.2176 17.5476C12.9721 17.3525 12.6216 17.3842 12.4131 17.6204L9.91825 20.4455L10.7587 16.2578L19.3165 7.47354C19.5491 7.23527 19.5494 6.84868 19.3173 6.61004C19.1337 6.42114 18.8518 6.37655 18.6212 6.4999L6.28388 13.0937L1.62084 11.4302C1.36667 11.3443 1.19381 11.1022 1.19069 10.8276C1.17841 10.5511 1.3379 10.2968 1.58829 10.194L22.9147 1.35725C23.1374 1.26023 23.3945 1.30087 23.5785 1.46225C23.7616 1.61394 23.8457 1.85861 23.7959 2.09464L19.9129 21.6629Z" fill="black"/>
</svg>
