<svg width="25" height="24" viewBox="0 0 25 24" fill="none" xmlns="http://www.w3.org/2000/svg">
<path d="M24.34 0.522141C23.817 0.0770066 23.0981 -0.0375396 22.4682 0.223843L1.13837 9.06179C0.200094 9.45816 -0.247426 10.5601 0.138768 11.523C0.338514 12.0211 0.736117 12.4076 1.23138 12.5853L5.83287 14.2271L8.3266 22.6892C8.33162 22.7064 8.34702 22.7169 8.35349 22.7335C8.37928 22.801 8.41699 22.8631 8.46459 22.9167C8.48232 22.9382 8.50164 22.9584 8.52228 22.9771C8.5844 23.03 8.65656 23.0692 8.73416 23.092C8.746 23.0956 8.75392 23.1064 8.76598 23.1092L8.77296 23.1089L8.77645 23.1104C8.81619 23.1195 8.85674 23.1239 8.89736 23.1235C8.95047 23.1216 9.00315 23.1122 9.05372 23.0956C9.06353 23.0928 9.07341 23.0935 9.08301 23.0903C9.1694 23.059 9.24744 23.0076 9.31102 22.9401C9.31843 22.9325 9.32969 22.9311 9.33681 22.9231L12.9245 18.8603L18.1585 23.0197C18.4765 23.2749 18.8686 23.4135 19.2722 23.4135C20.1453 23.4133 20.899 22.7856 21.0789 21.9089L24.9631 2.33817C25.0977 1.66119 24.8581 0.963173 24.34 0.522141ZM9.62869 15.832L8.78677 20.0311L7.03098 14.0712L15.7392 9.41729L9.79029 15.5229C9.70804 15.6074 9.65187 15.7149 9.62869 15.832ZM19.9129 21.6631C19.8672 21.888 19.7109 22.0724 19.5002 22.1499C19.2942 22.2312 19.0617 22.1949 18.8886 22.0544L13.2176 17.5478C12.9721 17.3527 12.6216 17.3844 12.4131 17.6205L9.91825 20.4456L10.7587 16.2579L19.3165 7.47366C19.5491 7.23539 19.5494 6.8488 19.3173 6.61016C19.1337 6.42127 18.8518 6.37667 18.6212 6.50002L6.28388 13.0938L1.62084 11.4303C1.36667 11.3444 1.19381 11.1023 1.19069 10.8277C1.17841 10.5512 1.3379 10.297 1.58829 10.1941L22.9147 1.35737C23.1374 1.26035 23.3945 1.30099 23.5785 1.46237C23.7616 1.61406 23.8457 1.85874 23.7959 2.09476L19.9129 21.6631Z" fill="white"/>
</svg>
