<svg width="28" height="25" viewBox="0 0 28 25" fill="none" xmlns="http://www.w3.org/2000/svg">
<path d="M27 1.09795C25.8683 1.93794 24.6152 2.58039 23.2891 3.00057C22.5773 2.13943 21.6314 1.52908 20.5792 1.25206C19.527 0.975043 18.4194 1.04473 17.4061 1.45168C16.3928 1.85864 15.5227 2.58324 14.9135 3.52747C14.3043 4.47171 13.9855 5.59003 14 6.73118V7.97472C11.9231 8.03138 9.86514 7.54671 8.00937 6.56386C6.15361 5.58101 4.55765 4.13049 3.36364 2.34149C3.36364 2.34149 -1.36364 13.5333 9.27273 18.5075C6.83881 20.2459 3.93937 21.1176 1 20.9946C11.6364 27.2122 24.6364 20.9946 24.6364 6.69387C24.6353 6.34749 24.6036 6.00196 24.5418 5.66174C25.748 4.41011 26.5992 2.82984 27 1.09795Z" stroke="black" stroke-width="1.5" stroke-linecap="round" stroke-linejoin="round"/>
</svg>
